<svg id="Layer_1" data-name="Layer 1" xmlns="http://www.w3.org/2000/svg" viewBox="0 0 466.10001 207.65001"><defs><style>.cls-1{fill:#1d1d1b;}.cls-2{fill:none;stroke:#1d1d1b;stroke-miterlimit:10;stroke-width:10px;}</style></defs><path class="cls-1" d="M43.85,40.25H54.17v37h18V85.9H43.85Z" transform="translate(0 0)"/><path class="cls-1" d="M76.26,68.52c0-11.27,8-18.22,16.38-18.22,9.89,0,14.79,7.19,14.79,16.67a22.99912,22.99912,0,0,1-.43,4.55H86.23c.92,5,4.37,7.35,9,7.35a14.51992,14.51992,0,0,0,7.51-2.27l3.41,6.2a22.57988,22.57988,0,0,1-12.33,3.92C83.92,86.72,76.26,80.02,76.26,68.52Zm22.38-3.81c0-3.81-1.66-6.56-5.77-6.56-3.25,0-6.06,2.18-6.76,6.56Z" transform="translate(0 0)"/><path class="cls-1" d="M111.46,81.86l4.63-6.41c3.15,2.38,6.06,3.65,9,3.65,3.06,0,4.39-1.17,4.39-3,0-2.28-3.44-3.32-7-4.72-4.25-1.65-9.19-4.47-9.19-10.21,0-6.47,5.26-10.88,13.27-10.88a19.73,19.73,0,0,1,12.24,4.4l-4.6,6.18c-2.47-1.8-4.91-3-7.32-3-2.66,0-4,1-4,2.77,0,2.21,3.25,3.06,6.85,4.37,4.4,1.63,9.35,4.1,9.35,10.45s-5,11.21-14.26,11.21A22.53985,22.53985,0,0,1,111.46,81.86Z" transform="translate(0 0)"/><path class="cls-1" d="M157.52,68.52c0-11.55,8.51-18.22,18.1-18.22a15.13,15.13,0,0,1,10.15,3.74l-4.86,6.62a7,7,0,0,0-4.71-2.05c-5,0-8.13,3.9-8.13,9.91s3.31,9.89,7.78,9.89a10.46,10.46,0,0,0,6.27-2.56l4,6.73a17.38006,17.38006,0,0,1-11.45,4.14C165,86.72,157.52,80.04,157.52,68.52Z" transform="translate(0 0)"/><path class="cls-1" d="M188.25,68.52c0-11.55,8.13-18.22,16.92-18.22s16.92,6.67,16.92,18.22-8.13,18.2-16.92,18.2S188.25,80.04,188.25,68.52Zm23.29,0c0-6-2.11-9.91-6.37-9.91s-6.37,3.9-6.37,9.91,2.12,9.89,6.37,9.89S211.54,74.53,211.54,68.52Z" transform="translate(0 0)"/><path class="cls-1" d="M228.36,40.68c0-3.15,2.51-5.38,6-5.38s6,2.23,6,5.38-2.51,5.38-6,5.38S228.36,43.81,228.36,40.68Zm.8,10.46h10.29V85.87H229.12Z" transform="translate(0 0)"/><path class="cls-1" d="M245.6,51.54l5.2-.4h38.09v8.08H245.6Zm4.62-1.95c0-7.12,3.71-12.9,13.16-12.9a19.75016,19.75016,0,0,1,7.19,1.26l-1.86,7.59a9.06,9.06,0,0,0-4.09-.78c-2.35,0-4.11,1.49-4.11,4.76V85.87H250.22Zm22.12-.25c0-7.33,3.41-13.35,12.78-13.35a20.2198,20.2198,0,0,1,6.93,1.23l-1.85,7.59a10,10,0,0,0-3.6-.75c-2.51,0-4,1.39-4,5V85.88H272.36Z" transform="translate(0 0)"/><path class="cls-1" d="M291.71,68.52c0-11.27,8-18.22,16.39-18.22,9.89,0,14.79,7.19,14.79,16.67a22.99987,22.99987,0,0,1-.43,4.55H301.68c.93,5,4.38,7.35,9,7.35a14.52,14.52,0,0,0,7.51-2.27l3.41,6.2a22.57987,22.57987,0,0,1-12.33,3.92C299.36,86.72,291.71,80.02,291.71,68.52Zm22.39-3.81c0-3.81-1.66-6.56-5.77-6.56-3.26,0-6.06,2.18-6.76,6.56Z" transform="translate(0 0)"/><path class="cls-1" d="M329.66,72.7V51.14h10.29V71.39c0,5,1.34,6.56,4.32,6.56,2.58,0,4.16-1.09,6.17-3.82v-23h10.29V85.86h-8.37l-.75-4.81h-.25c-2.9,3.46-6.17,5.66-10.91,5.66C332.88,86.72,329.66,81.39,329.66,72.7Z" transform="translate(0 0)"/><path class="cls-1" d="M369.75,51.14h8.4l.74,6.07h.25c2.53-4.63,6.33-6.91,9.87-6.91a9.68024,9.68024,0,0,1,4.14.7l-1.71,8.93a14.39992,14.39992,0,0,0-3.75-.56c-2.62,0-5.8,1.69-7.65,6.43V85.92H369.75Z" transform="translate(0 0)"/><path class="cls-1" d="M393.98,81.86l4.63-6.41c3.15,2.38,6.05,3.65,9,3.65,3.06,0,4.39-1.17,4.39-3,0-2.28-3.45-3.32-7-4.72-4.26-1.65-9.19-4.47-9.19-10.21,0-6.47,5.25-10.88,13.27-10.88a19.75994,19.75994,0,0,1,12.24,4.4l-4.67,6.24c-2.47-1.8-4.91-3-7.31-3-2.66,0-4,1-4,2.77,0,2.21,3.26,3.06,6.85,4.37,4.4,1.63,9.36,4.1,9.36,10.45s-5,11.21-14.27,11.21A22.51,22.51,0,0,1,393.98,81.86Z" transform="translate(0 0)"/><path class="cls-1" d="M70.62,152.52c0-11.27,8-18.22,16.38-18.22,9.9,0,14.8,7.19,14.8,16.67a22.99912,22.99912,0,0,1-.43,4.55H80.59c.92,5,4.37,7.35,9,7.35a14.51992,14.51992,0,0,0,7.51-2.27l3.4,6.2a22.62006,22.62006,0,0,1-12.32,3.91C78.29,170.71,70.62,164.02,70.62,152.52Zm22.39-3.81c0-3.81-1.67-6.56-5.77-6.56-3.26,0-6.06,2.18-6.76,6.56Z" transform="translate(0 0)"/><path class="cls-1" d="M108.9,135.14h8.39l.75,4.4h.25c2.92-2.81,6.42-5.24,11.16-5.24,7.55,0,10.77,5.33,10.77,14v21.56H129.93V149.63c0-5-1.34-6.56-4.31-6.56-2.59,0-4.17,1.2-6.43,3.37v23.43H108.9Z" transform="translate(0 0)"/><path class="cls-1" d="M161.15,152.52c0-11.36,7.09-18.22,14.41-18.22,3.82,0,6.16,1.43,8.51,3.63l-.37-5.27V120.83h10.29v49h-8.4l-.74-3.44h-.25a13.75,13.75,0,0,1-9.24,4.28C166.73,170.71,161.15,163.86,161.15,152.52Zm22.55,6.66V144.93a8.41991,8.41991,0,0,0-5.75-2.2c-3.33,0-6.25,3.08-6.25,9.68,0,6.82,2.35,9.89,6.34,9.89C180.23,162.29,182,161.46,183.7,159.18Z" transform="translate(0 0)"/><path class="cls-1" d="M201.03,152.52c0-11.27,8-18.22,16.38-18.22,9.89,0,14.8,7.19,14.8,16.67a23.81921,23.81921,0,0,1-.43,4.55H211c.92,5,4.37,7.35,9,7.35a14.54007,14.54007,0,0,0,7.51-2.27l3.4,6.2a22.62009,22.62009,0,0,1-12.32,3.91C208.7,170.71,201.03,164.02,201.03,152.52Zm22.38-3.81c0-3.81-1.66-6.56-5.77-6.56-3.25,0-6.06,2.18-6.76,6.56Z" transform="translate(0 0)"/><path class="cls-1" d="M235.2,135.14h10.34l4.52,16.4c.89,3.45,1.8,7,2.69,10.67h.28c.89-3.63,1.8-7.22,2.69-10.67l4.52-16.4h9.86l-11.33,34.73H246.9Z" transform="translate(0 0)"/><path class="cls-1" d="M272.92,152.52c0-11.27,8-18.22,16.38-18.22,9.89,0,14.8,7.19,14.8,16.67a23.81839,23.81839,0,0,1-.43,4.55H282.89c.92,5,4.37,7.35,9,7.35a14.54007,14.54007,0,0,0,7.51-2.27l3.4,6.2a22.62006,22.62006,0,0,1-12.32,3.91C280.59,170.71,272.92,164.02,272.92,152.52Zm22.38-3.81c0-3.81-1.66-6.56-5.77-6.56-3.25,0-6.06,2.18-6.76,6.56Z" transform="translate(0 0)"/><path class="cls-1" d="M311.2,135.14h8.39l.74,4.4h.26c2.92-2.81,6.42-5.24,11.16-5.24,7.55,0,10.77,5.33,10.77,14v21.56H332.23V149.63c0-5-1.34-6.56-4.31-6.56-2.59,0-4.17,1.2-6.43,3.37v23.43H311.2Z" transform="translate(0 0)"/><path class="cls-1" d="M350.44,124.68c0-3.15,2.5-5.38,5.95-5.38s6,2.23,6,5.38-2.5,5.38-6,5.38S350.44,127.81,350.44,124.68Zm.8,10.46h10.29v34.73H351.24Z" transform="translate(0 0)"/><path class="cls-1" d="M370.55,135.14h8.4l.74,6.07h.26c2.53-4.64,6.32-6.91,9.87-6.91a9.73969,9.73969,0,0,1,4.14.7l-1.72,8.93a14.2607,14.2607,0,0,0-3.74-.56c-2.62,0-5.8,1.69-7.65,6.43v20.12h-10.3Z" transform="translate(0 0)"/><path class="cls-2" d="M5,5H461.1V138.77a63.88,63.88,0,0,1-63.88,63.88H68.88A63.88,63.88,0,0,1,5,138.77V5Z" transform="translate(0 0)"/></svg>